<?xml version="1.0" encoding="UTF-8"?>
<svg version="1.1" xmlns="http://www.w3.org/2000/svg" width="1000" height="1000">
<path d="M0 0 C330 0 660 0 1000 0 C1000 330 1000 660 1000 1000 C670 1000 340 1000 0 1000 C0 670 0 340 0 0 Z " fill="#FEFEFE" transform="translate(0,0)"/>
<path d="M0 0 C0.77447479 -0.00785522 1.54894958 -0.01571045 2.34689331 -0.02380371 C11.02007462 -0.09223661 19.44573796 0.31680359 28.015625 1.71484375 C28.7350528 1.83159454 29.45448059 1.94834534 30.19570923 2.06863403 C37.69425316 3.41642046 44.47920603 6.21372526 51.375 9.375 C52.14070313 9.70371094 52.90640625 10.03242188 53.6953125 10.37109375 C78.2909245 21.57354861 95.11729259 45.88411365 104.64794922 70.36669922 C116.59533219 103.36843605 110.72808793 136.65263613 96.46484375 167.5625 C88.02091385 185.31875362 76.83243131 201.46248333 65.375 217.375 C64.90723145 218.02887695 64.43946289 218.68275391 63.95751953 219.35644531 C56.31609652 230.00324545 56.31609652 230.00324545 51.375 233.375 C43.12963652 233.65450385 36.80569705 229.54262325 30.87890625 224.0703125 C25.01410731 217.88771658 20.51863607 211.6653631 19.6875 203 C20.17205741 193.96534885 28.09503173 186.39357306 33.39990234 179.62280273 C50.33032869 157.77944451 63.25963655 133.05761295 70.375 106.375 C70.6225 105.570625 70.87 104.76625 71.125 103.9375 C75.69215035 87.6987432 71.8391021 69.44942714 63.984375 54.96484375 C58.68492548 46.4368461 51.98648467 43.0639934 42.375 40.375 C26.38116787 37.88990258 11.86464229 39.93932725 -3.89453125 43.08984375 C-9.76611801 44.25186806 -15.6204432 45.05905033 -21.5625 45.75 C-33.85724836 47.24222042 -45.7112829 50.45928852 -57.66503906 53.61816406 C-60.13624499 54.25002965 -62.60107389 54.81348388 -65.09765625 55.33203125 C-71.25743935 56.66507149 -77.24051086 58.61744244 -83.25 60.5 C-84.20656998 60.79928406 -84.20656998 60.79928406 -85.1824646 61.10461426 C-118.84517544 71.65401177 -151.12385152 84.51701057 -182.625 100.375 C-183.78402832 100.9539502 -184.94305664 101.53290039 -186.13720703 102.12939453 C-207.49121095 112.82879266 -227.98488062 124.77678919 -247.625 138.375 C-248.29160645 138.83583984 -248.95821289 139.29667969 -249.64501953 139.77148438 C-263.66337278 149.49572293 -277.39402816 159.59994433 -290.625 170.375 C-291.45773437 171.03371094 -292.29046875 171.69242188 -293.1484375 172.37109375 C-299.42470103 177.38658294 -305.31760141 182.71401627 -311.1472168 188.23876953 C-314.2187261 191.14756915 -317.31894985 193.99560988 -320.5234375 196.7578125 C-331.82896777 206.58573689 -342.5714744 217.430991 -351.625 229.375 C-352.57321712 230.57240845 -353.52251567 231.76896099 -354.47265625 232.96484375 C-366.69094057 248.54354587 -380.42585874 268.7970693 -380.625 289.375 C-380.67398438 290.58671875 -380.72296875 291.7984375 -380.7734375 293.046875 C-381.31505715 310.63581502 -376.24066588 325.20144451 -364.08691406 338.12792969 C-336.37072131 366.06749001 -291.47123132 373.9338604 -254.89794922 383.51269531 C-252.12730669 384.24266021 -249.36128833 384.98623434 -246.59765625 385.7421875 C-236.23499095 388.56281471 -225.79411605 390.91707133 -215.30761719 393.23120117 C-206.70515164 395.14884643 -198.15086609 397.22516358 -189.609375 399.3984375 C-188.54708176 399.66863205 -187.48478851 399.9388266 -186.39030457 400.21720886 C-184.19087984 400.77696869 -181.99147316 401.33679945 -179.79208374 401.896698 C-160.08114634 406.91054879 -140.35666658 411.46162475 -120.40136719 415.39160156 C-109.61636301 417.51988247 -98.95198323 419.83806917 -88.35449219 422.78881836 C-82.48685222 424.48244486 -82.48685222 424.48244486 -76.625 423.375 C-74.2723005 421.95650274 -72.05418469 420.51242719 -69.8125 418.9375 C-68.4569805 418.01118704 -67.10017077 417.08675977 -65.7421875 416.1640625 C-65.0522168 415.69387695 -64.36224609 415.22369141 -63.65136719 414.73925781 C-57.75853351 410.77188979 -51.67765242 407.0915007 -45.625 403.375 C-44.58553223 402.73578613 -43.54606445 402.09657227 -42.47509766 401.43798828 C-29.01724754 393.17040209 -15.5539259 384.93823115 -1.63574219 377.46044922 C0.37397953 376.37555088 2.3709165 375.26957532 4.3671875 374.16015625 C41.58994697 353.69213405 82.32286692 339.19287992 125.0625 339.0625 C125.75004364 339.05873352 126.43758728 339.05496704 127.14596558 339.05108643 C142.21776052 339.00913575 153.96407356 340.49666057 165.25390625 351.04296875 C170.94513852 357.30017992 174.11803232 363.66580764 173.78125 372.18359375 C173.33747193 374.57743504 172.64943577 376.30404187 171.375 378.375 C168.68362836 379.72068582 166.65589766 379.45347713 163.64453125 379.40234375 C162.46117187 379.38824463 161.2778125 379.37414551 160.05859375 379.35961914 C158.78113281 379.34406982 157.50367188 379.32852051 156.1875 379.3125 C86.02335496 379.06744141 26.45648181 412.68701085 -30.625 450.375 C-30.23320557 450.82593018 -29.84141113 451.27686035 -29.43774414 451.74145508 C-19.76263234 462.94069781 -11.61221552 473.98649739 -12.34375 489.421875 C-13.76707533 504.36679094 -22.43589154 515.08146437 -32.625 525.375 C-33.55892578 526.39980469 -33.55892578 526.39980469 -34.51171875 527.4453125 C-41.3081146 534.74571073 -49.61002588 540.50080422 -57.625 546.375 C-58.26969238 546.8484082 -58.91438477 547.32181641 -59.57861328 547.80957031 C-92.18418132 571.51804888 -130.27730543 589.42115987 -169.625 598.375 C-170.39884033 598.55683838 -171.17268066 598.73867676 -171.9699707 598.92602539 C-181.15509373 601.04465014 -187.90134404 601.53834764 -196.375 596.78515625 C-202.8947797 592.69897487 -206.74827674 587.90237441 -210.625 581.375 C-211.00398437 580.77171875 -211.38296875 580.1684375 -211.7734375 579.546875 C-216.22585082 568.19117865 -211.65481219 551.40369569 -207.1171875 540.61328125 C-197.13888904 519.51962241 -178.55693346 500.88752402 -160.34375 486.53125 C-157.87737943 484.57516299 -155.4813694 482.55490834 -153.09716797 480.5 C-144.88288653 473.4283349 -136.26953166 466.90777042 -127.625 460.375 C-125.78842183 458.98343885 -123.95430533 457.58860806 -122.125 456.1875 C-121.4546875 455.67832031 -120.784375 455.16914062 -120.09375 454.64453125 C-118.48775144 453.42069621 -118.48775144 453.42069621 -117.625 451.375 C-118.28564453 451.260354 -118.94628906 451.14570801 -119.62695312 451.02758789 C-126.50748443 449.8085057 -133.31818053 448.38972292 -140.125 446.8125 C-141.76988403 446.43266968 -141.76988403 446.43266968 -143.44799805 446.04516602 C-154.67629911 443.41832248 -165.83293773 440.52378548 -176.99511719 437.6315918 C-192.08089592 433.72450063 -207.2025963 430.09376852 -222.4375 426.8125 C-231.55333916 424.84647088 -240.6083145 422.76107644 -249.625 420.375 C-250.60549316 420.11912109 -251.58598633 419.86324219 -252.59619141 419.59960938 C-308.33452242 404.97809604 -373.32975852 384.97706443 -404.79052734 332.42822266 C-418.11555083 308.8467891 -424.43109932 280.08970684 -417.53173828 253.45068359 C-409.50979679 225.51173396 -393.05358473 202.54756793 -373.625 181.375 C-372.66226254 180.30774057 -371.70004724 179.24000996 -370.73828125 178.171875 C-365.50461275 172.3898289 -360.19863337 166.88632673 -354.31640625 161.75 C-351.66133101 159.40705988 -349.07802697 157.00308631 -346.49902344 154.57739258 C-340.9275671 149.34157519 -335.27384192 144.3075211 -329.30078125 139.52734375 C-326.55237908 137.31658522 -323.8726202 135.03704644 -321.1875 132.75 C-293.98862594 110.0459675 -263.71278888 90.30453728 -232.625 73.375 C-231.78308105 72.91528809 -230.94116211 72.45557617 -230.07373047 71.98193359 C-225.431009 69.46256205 -220.75545661 67.01581986 -216.04931641 64.6171875 C-213.48584057 63.30369656 -210.93673209 61.96441974 -208.38671875 60.625 C-182.7304014 47.30836297 -155.7270031 36.65448857 -128.39355469 27.32080078 C-126.07246 26.52786244 -123.75768926 25.7202206 -121.4453125 24.90234375 C-109.67903031 20.8273841 -97.63960661 17.62475369 -85.625 14.375 C-84.48788574 14.06739746 -83.35077148 13.75979492 -82.17919922 13.44287109 C-68.52079396 9.77175357 -54.86855106 6.2714696 -40.9375 3.796875 C-38.6999131 3.38866658 -36.47680718 2.93167049 -34.25 2.46875 C-22.87919068 0.27193386 -11.54224087 0.05714624 0 0 Z " fill="#010101" transform="translate(440.625,249.625)"/>
<path d="M0 0 C0.886875 0.44601562 1.77375 0.89203125 2.6875 1.3515625 C16.30348967 8.78223979 23.93027111 20.2278806 28.23828125 34.82421875 C33.91925815 58.50952245 28.54170342 82.73431438 23.44268799 105.97784424 C23.04633288 107.78835592 22.65903887 109.6008457 22.27294922 111.41357422 C14.51605509 147.35094516 0.60119974 182.82185012 -15 216 C-15.47663086 217.02416016 -15.95326172 218.04832031 -16.44433594 219.10351562 C-40.61442761 270.92053235 -40.61442761 270.92053235 -49 275 C-55.68486652 276.38452256 -60.65040009 274.24318708 -66.35546875 270.828125 C-73.53530684 265.86481005 -79.50614337 259.54865279 -82 251 C-83.36841365 242.97588974 -80.16123779 237.69712539 -76.0625 231 C-74.85394888 228.94229816 -73.64692406 226.88369914 -72.44140625 224.82421875 C-71.84859863 223.82438965 -71.25579102 222.82456055 -70.64501953 221.79443359 C-51.68857068 189.59266548 -38.02399583 154.2713823 -26 119 C-25.67483398 118.04657715 -25.34966797 117.0931543 -25.01464844 116.11083984 C-20.90092641 103.91576424 -17.75257784 91.56762984 -15 79 C-14.80631836 78.14680176 -14.61263672 77.29360352 -14.41308594 76.41455078 C-11.23665002 62.28720425 -10.21907721 48.4647615 -10 34 C-51.60472712 48.77614695 -90.73211869 83.48407321 -119 117 C-119.96954855 118.10835292 -120.94111547 119.21494167 -121.9140625 120.3203125 C-138.20853442 138.86892193 -152.92277513 158.65655678 -166.72949219 179.11767578 C-167.96303121 180.9452288 -169.20388129 182.76764645 -170.4453125 184.58984375 C-177.02851238 194.30632351 -183.18275992 204.27755754 -189.32226562 214.27832031 C-190.96943457 216.95041569 -192.63045718 219.61331156 -194.296875 222.2734375 C-201.84847672 234.3436021 -209.05666639 246.57023413 -216 259 C-216.47759766 259.85078125 -216.95519531 260.7015625 -217.44726562 261.578125 C-246.64331637 313.72803973 -270.32908099 369.27839698 -286 427 C-286.22139648 427.8034082 -286.44279297 428.60681641 -286.67089844 429.43457031 C-292.59264444 450.95633442 -297.10597025 472.04601771 -297.25 494.4375 C-297.2593457 495.43225342 -297.26869141 496.42700684 -297.27832031 497.4519043 C-297.23776819 506.77655298 -296.31601645 516.07196163 -291 524 C-288.71709187 526.37657725 -288.71709187 526.37657725 -286 528 C-285.154375 528.5775 -284.30875 529.155 -283.4375 529.75 C-271.40478702 534.12553199 -258.93660345 528.95971454 -247.83789062 524.04199219 C-218.17865013 510.1211509 -193.06244323 486.77466918 -169 465 C-168.14220947 464.22906006 -167.28441895 463.45812012 -166.40063477 462.66381836 C-158.59691885 455.59283927 -151.09554626 448.24997756 -143.66186523 440.79223633 C-141.67610324 438.80107223 -139.6849926 436.81536779 -137.69335938 434.83007812 C-131.58254051 428.7224525 -125.5717164 422.61052852 -120 416 C-118.54554483 414.39231627 -117.08779105 412.78760285 -115.625 411.1875 C-111.80085522 406.9455915 -108.15110545 402.59448903 -104.5625 398.15234375 C-102.66979087 395.81140119 -100.74749825 393.49750788 -98.8125 391.19140625 C-90.0931777 380.77147623 -81.93095099 370.0295985 -74 359 C-73.48195801 358.28344238 -72.96391602 357.56688477 -72.43017578 356.82861328 C-64.23093316 345.46872461 -56.52101273 333.81809149 -49 322 C-48.47293457 321.1754834 -47.94586914 320.3509668 -47.40283203 319.50146484 C-42.03147966 311.07163236 -36.82202306 302.58372987 -32.0234375 293.8125 C-31.68784821 293.2003212 -31.35225891 292.5881424 -31.00650024 291.95741272 C-29.35724521 288.94222627 -27.72358879 285.91990826 -26.11181641 282.88452148 C-25.51804199 281.78696533 -24.92426758 280.68940918 -24.3125 279.55859375 C-23.79300781 278.58204834 -23.27351563 277.60550293 -22.73828125 276.59936523 C-20.79210774 273.68912515 -18.90835327 271.93768475 -16 270 C-8.29417862 268.97255715 -2.58548568 271.33665133 3.58203125 275.91796875 C10.33215393 281.63583879 16.89466337 288.37931177 17.9375 297.5625 C17.54164208 303.1733558 14.80652472 307.65061303 12.11254883 312.45043945 C-7.44876903 347.42505267 -21.25618573 387.37880004 -30.34448242 426.23608398 C-31.04141007 429.17460087 -31.77323981 432.10291231 -32.51171875 435.03125 C-40.87117204 468.35907036 -46.34687179 503.04683307 -46.44604492 537.46557617 C-46.54757753 543.05086038 -46.95674062 546.75596233 -51 551 C-55.79014023 552.65364646 -60.45831293 551.7341367 -64.953125 549.59375 C-67.74997483 547.85145011 -70.37639755 545.99191647 -73 544 C-74.0725 543.2575 -75.145 542.515 -76.25 541.75 C-82.31363892 535.68636108 -86.31640972 530.33573968 -86.58105469 521.55493164 C-86.54646346 517.02484692 -86.28916555 512.52007675 -86 508 C-85.93570801 506.82791992 -85.87141602 505.65583984 -85.80517578 504.44824219 C-85.16286566 492.78389043 -84.52022807 481.211037 -82.47265625 469.69726562 C-81.83492578 466.05798556 -81.37932599 462.41826959 -80.9375 458.75 C-80.78152344 457.46609375 -80.62554688 456.1821875 -80.46484375 454.859375 C-80.31144531 453.58578125 -80.15804688 452.3121875 -80 451 C-79.66921471 448.33300766 -79.33479307 445.66649347 -79 443 C-82.8925601 446.66726723 -86.40626773 450.45825692 -89.6875 454.68359375 C-95.86043374 462.27983524 -102.82251224 469.08558299 -109.76586914 475.97167969 C-112.0665319 478.25399976 -114.35900504 480.54430719 -116.65039062 482.8359375 C-118.13234073 484.31297349 -119.61474703 485.78955194 -121.09765625 487.265625 C-121.77184097 487.9386969 -122.4460257 488.6117688 -123.14064026 489.30523682 C-127.60563423 493.72647699 -132.22617866 497.91510884 -137 502 C-137.61836731 502.53024277 -138.23673462 503.06048553 -138.87384033 503.60679626 C-140.538756 505.03205262 -142.20674931 506.45364946 -143.875 507.875 C-148.03206689 511.42401333 -152.14575502 515.00674022 -156.1875 518.6875 C-161.30475207 523.32136344 -166.6013745 527.69853796 -172 532 C-173.00933594 532.804375 -174.01867187 533.60875 -175.05859375 534.4375 C-202.15781499 555.78776717 -231.11904046 570.52736939 -266.44921875 567.7265625 C-283.28709275 565.3436324 -298.09188335 556.88849867 -310 545 C-310.77214844 544.23945312 -311.54429687 543.47890625 -312.33984375 542.6953125 C-330.95181683 523.28795596 -337.77958024 495.89716801 -337.32983398 469.61010742 C-337.24825538 467.07118147 -337.13297911 464.5367155 -337 462 C-336.96664551 461.25991699 -336.93329102 460.51983398 -336.89892578 459.75732422 C-335.78804243 438.59332764 -330.3478299 416.47840971 -323.45703125 396.49609375 C-322.17309846 392.71120897 -321.16182399 388.87942837 -320.15625 385.01171875 C-317.98085289 376.69337609 -315.40440397 368.53086096 -312.6875 360.375 C-312.43355469 359.61108948 -312.17960938 358.84717896 -311.91796875 358.06011963 C-303.11320828 331.72106361 -292.40983416 306.06822546 -280.43847656 281.01660156 C-278.98256438 277.9634361 -277.54845338 274.90072387 -276.1171875 271.8359375 C-257.66817183 232.56416784 -235.59315537 194.73930697 -211 159 C-210.48646973 158.25363281 -209.97293945 157.50726563 -209.44384766 156.73828125 C-194.41982272 134.97119 -178.84596159 113.71280955 -161.49853516 93.73681641 C-160.03175401 92.03680319 -158.58167584 90.32405065 -157.13671875 88.60546875 C-140.08679141 68.36956112 -121.3678048 49.88701244 -101 33 C-100.41573242 32.51080078 -99.83146484 32.02160156 -99.22949219 31.51757812 C-73.3971085 9.96022267 -34.74548361 -18.65595569 0 0 Z " fill="#010101" transform="translate(948,278)"/>
<path d="M0 0 C3.1875 2 3.1875 2 4.12890625 3.83203125 C4.1875 6 4.1875 6 2.6328125 8.26171875 C1.86710937 9.06222656 1.10140625 9.86273437 0.3125 10.6875 C-0.94046875 12.00621094 -0.94046875 12.00621094 -2.21875 13.3515625 C-3.0746875 14.22554687 -3.930625 15.09953125 -4.8125 16 C-5.5446875 16.77085937 -6.276875 17.54171875 -7.03125 18.3359375 C-29.5524435 41.59151774 -59.73873575 60.67356404 -89.125 73.875 C-89.8775708 74.2148291 -90.6301416 74.5546582 -91.40551758 74.90478516 C-93.17988902 75.67144008 -94.99360112 76.34596586 -96.8125 77 C-97.4725 76.67 -98.1325 76.34 -98.8125 76 C-90.65866747 66.03729678 -80.91735711 57.9060402 -70.8125 50 C-69.26901018 48.77312348 -67.72738702 47.54389546 -66.1875 46.3125 C-65.35863281 45.65121094 -64.52976562 44.98992188 -63.67578125 44.30859375 C-61.5368037 42.58398839 -59.41107249 40.8475419 -57.29296875 39.09765625 C-47.81808267 31.29069721 -38.07144134 23.94460192 -28.15087891 16.71533203 C-23.75459586 13.49041193 -19.40712716 10.200061 -15.0625 6.90600586 C-13.32114174 5.59186516 -11.56884246 4.29401227 -9.8125 3 C-9.26972412 2.58524414 -8.72694824 2.17048828 -8.16772461 1.74316406 C-4.24775663 -1.11416567 -4.24775663 -1.11416567 0 0 Z " fill="#F9F9F9" transform="translate(386.8125,718)"/>
</svg>
